<?xml version="1.0" encoding="UTF-8"?>
<svg id="Layer_2" data-name="Layer 2" xmlns="http://www.w3.org/2000/svg" xmlns:xlink="http://www.w3.org/1999/xlink" viewBox="0 0 196.54 59.62">
  <defs>
    <style>
      .cls-1 {
        letter-spacing: .22em;
      }

      .cls-2, .cls-3 {
        fill: #e3ba23;
      }

      .cls-4 {
        fill: none;
      }

      .cls-5 {
        letter-spacing: .18em;
      }

      .cls-6 {
        fill: #034694;
      }

      .cls-3 {
        font-family: GillSansMT, 'Gill Sans MT';
        font-size: 11.98px;
        stroke: #e3b923;
        stroke-miterlimit: 10;
        stroke-width: .25px;
      }

      .cls-7 {
        clip-path: url(#clippath);
      }
    </style>
    <clipPath id="clippath">
      <polygon class="cls-4" points="106.19 35.02 196.47 13.47 196.47 41.34 196.54 43.34 107.59 43.47 106.19 35.02"/>
    </clipPath>
  </defs>
  <g id="_Layer_" data-name="&amp;lt;Layer&amp;gt;">
    <path class="cls-6" d="M.89,41.85L19.27,0h7.43l18.45,41.85h-7.29l-5.24-12.5H13.12l-5.28,12.5H.89ZM15.2,24.46h15.42l-7.66-18.47-7.76,18.47Z"/>
    <path class="cls-6" d="M50.25,41.85V0h18.85C76.01,0,81.29,1.74,84.95,5.23c3.66,3.48,5.49,8.51,5.49,15.09s-1.9,12.09-5.7,15.87c-3.8,3.78-9.1,5.67-15.91,5.67h-18.58ZM68.54,4.83h-11.56v31.91h11.56c4.95,0,8.69-1.36,11.22-4.08,2.53-2.72,3.8-6.74,3.8-12.06s-1.29-9-3.87-11.71c-2.58-2.71-6.29-4.06-11.16-4.06Z"/>
    <path class="cls-6" d="M109.89,41.85L91.68,0h6.96l14.67,35.03L128.42,0h7.03l-18.53,41.85h-7.02Z"/>
    <path class="cls-6" d="M141.17,41.85V0h6.72v41.85h-6.72Z"/>
    <g>
      <path class="cls-2" d="M74.68,13.37c0-1.65,1.33-2.98,2.98-2.98s2.98,1.33,2.98,2.98-1.33,2.98-2.98,2.98-2.98-1.33-2.98-2.98Z"/>
      <path class="cls-2" d="M74.68,28.7c0-1.65,1.33-2.98,2.98-2.98s2.98,1.33,2.98,2.98-1.33,2.98-2.98,2.98-2.98-1.33-2.98-2.98Z"/>
      <path class="cls-2" d="M72.79,13.37s0-.02,0-.03c0-.03,0-.05,0-.07,0-.08,0-.16-.02-.23,0-.08-.02-.15-.03-.22,0,0,0-.02,0-.03-.02-.1-.04-.19-.06-.28-.13-.44-.36-.83-.66-1.16,0,0-.01-.02-.02-.03,0,0,0,0-.02-.02-.03-.03-.06-.07-.1-.1-.52-.51-1.23-.82-1.98-.84h-.04c-.11,0-.27,0-.46.04-.26.03-.6.12-.96.31-.25.12-.5.28-.73.5-.14.13-.25.28-.34.43-.23.32-.41.71-.49,1.16-.12.75-.05,1.6-.2,2.29-.01.05-.03.11-.06.16-.01.03-.02.05-.04.08-.11.23-.3.52-.53.83-.02.02-.05.04-.07.06-.77.71-1.94,1.52-2.38,1.61-.15.03-.31.05-.46.07-.38,0-.82.03-1.26.11-.19.02-.37.04-.55.08-.52.11-1.03.37-1.4.75-.02.02-.03.03-.05.05h0s0,0,0,0c-.17.17-.39.39-.48.56-.29.52-.42,1.04-.42,1.5,0,.01,0,.02,0,.04,0,.02,0,.04,0,.05,0,.04,0,.07,0,.11,0,.06,0,.12.01.19.02.19.05.37.1.54.13.44.36.83.66,1.16,0,0,.01.02.02.02,0,0,.01,0,.02.02.03.03.06.06.1.1.52.51,1.23.82,1.97.85,0,0,.02,0,.03,0h.02c.11,0,.28,0,.49-.04.2-.03.45-.09.72-.2,0,0,.02,0,.03-.01.05-.02.1-.05.16-.07.26-.12.52-.29.76-.52.16-.15.28-.31.38-.49.21-.31.37-.68.45-1.1.13-.75.06-1.6.2-2.29,0-.04.03-.1.05-.15.01-.03.02-.06.04-.1.03-.07.07-.14.12-.22h0c.11-.18.25-.39.41-.6.07-.06.14-.13.22-.2.25-.22.54-.46.84-.68.57-.42,1.13-.76,1.41-.82.77-.16,1.57-.11,2.27-.27.42-.09.83-.28,1.16-.55,0,0,.02-.01.03-.02.07-.03.13-.07.19-.14.18-.18.43-.43.53-.61.29-.52.42-1.04.43-1.5,0-.02,0-.04,0-.05Z"/>
      <path class="cls-2" d="M72.79,21.03s0-.03,0-.03c0-.02,0-.05,0-.07,0-.08,0-.16-.02-.24,0-.07-.02-.15-.03-.22,0,0,0-.02,0-.03-.02-.09-.04-.19-.06-.28-.13-.44-.36-.83-.66-1.16,0,0-.01-.02-.02-.02,0,0,0-.01-.02-.02-.03-.03-.06-.06-.1-.1-.52-.51-1.23-.82-1.98-.84h-.04c-.11,0-.27,0-.46.04-.26.03-.6.11-.96.31-.25.12-.5.28-.73.5-.14.13-.25.28-.34.43-.23.32-.41.71-.49,1.16-.12.75-.05,1.59-.2,2.3-.01.05-.03.11-.06.16-.01.03-.02.05-.04.08-.11.23-.3.52-.53.83-.02.02-.05.04-.07.06-.77.71-1.94,1.52-2.38,1.61-.15.03-.31.05-.46.07-.38,0-.82.03-1.26.11-.19.02-.37.04-.55.08-.52.11-1.03.37-1.4.74-.02.02-.03.03-.05.05h0s0,0,0,0c-.17.18-.39.39-.48.56-.29.52-.42,1.04-.42,1.5,0,.01,0,.03,0,.04,0,.02,0,.03,0,.05,0,.04,0,.07,0,.11,0,.06,0,.12.01.19.02.19.05.37.1.54.13.44.36.83.66,1.16,0,0,.01.02.02.02,0,0,.01,0,.02.02.03.04.06.07.1.1.52.51,1.23.82,1.97.84,0,0,.02,0,.03,0,0,0,.01,0,.02,0,.11,0,.28,0,.49-.04.2-.03.45-.09.72-.2,0,0,.02,0,.03-.01.05-.02.1-.05.16-.07.26-.12.52-.29.76-.52.16-.15.28-.31.38-.49.21-.31.37-.68.45-1.1.13-.75.06-1.6.2-2.3,0-.04.03-.1.05-.15.01-.03.02-.06.04-.1.03-.07.07-.14.12-.22h0c.11-.18.25-.39.41-.6.07-.06.14-.13.22-.2.25-.22.54-.46.84-.68.57-.42,1.13-.76,1.41-.82.77-.16,1.57-.11,2.27-.27.42-.09.83-.28,1.16-.55,0,0,.02-.01.03-.02.07-.03.13-.08.19-.14.18-.18.43-.43.53-.61.29-.52.42-1.04.43-1.5,0-.02,0-.04,0-.05Z"/>
      <path class="cls-2" d="M80.64,21.03s0-.03,0-.03c0-.02,0-.05,0-.07,0-.08,0-.16-.02-.24,0-.07-.02-.15-.03-.22,0,0,0-.02,0-.03-.02-.09-.04-.19-.06-.28-.13-.44-.36-.83-.66-1.16,0,0-.01-.02-.02-.02,0,0-.01-.01-.02-.02-.03-.03-.07-.06-.1-.1-.52-.51-1.23-.82-1.97-.84h-.04c-.11,0-.27,0-.46.04-.26.03-.6.11-.96.31-.25.12-.5.28-.73.5-.14.13-.25.28-.34.43-.23.32-.41.71-.49,1.16-.13.75-.05,1.59-.2,2.3,0,.05-.03.11-.06.16-.01.03-.02.05-.03.08-.11.23-.3.52-.53.83-.02.02-.05.04-.07.06-.77.71-1.94,1.52-2.38,1.61-.15.03-.31.05-.46.07-.38,0-.82.03-1.26.11-.19.02-.37.04-.55.08-.52.11-1.04.37-1.4.74l-.05.05s0,0,0,0h0c-.17.18-.39.39-.48.56-.29.52-.42,1.04-.43,1.5,0,.01,0,.03,0,.04,0,.02,0,.03,0,.05,0,.04,0,.07,0,.11,0,.06,0,.12.01.19.02.19.05.37.1.54.13.44.36.83.66,1.16,0,0,.01.02.02.02,0,0,.01,0,.02.02.03.04.07.07.1.1.52.51,1.23.82,1.97.84,0,0,.02,0,.03,0,0,0,.01,0,.02,0,.11,0,.29,0,.49-.04.2-.03.45-.09.72-.2,0,0,.02,0,.03-.01.05-.02.1-.05.16-.07.26-.12.52-.29.76-.52.16-.15.28-.31.38-.49.21-.31.37-.68.45-1.1.13-.75.06-1.6.2-2.3,0-.04.03-.1.05-.15.01-.03.03-.06.04-.1.03-.07.07-.14.12-.22h0c.11-.18.25-.39.41-.6.07-.06.14-.13.21-.2.25-.22.54-.46.84-.68.57-.42,1.13-.76,1.41-.82.77-.16,1.57-.11,2.27-.27.42-.09.83-.28,1.16-.55,0,0,.02-.01.03-.02.07-.03.13-.08.19-.14.18-.18.43-.43.53-.61.29-.52.42-1.04.43-1.5,0-.02,0-.04,0-.05Z"/>
      <path class="cls-2" d="M58.98,13.37c0-1.65,1.33-2.98,2.98-2.98s2.98,1.33,2.98,2.98-1.33,2.98-2.98,2.98-2.98-1.33-2.98-2.98Z"/>
    </g>
    <path class="cls-6" d="M187.06,7.85v18.18c0,3.86-1.05,6.75-3.14,8.65-2.1,1.9-5.27,2.86-9.53,2.86s-7.48-.94-9.53-2.81c-2.05-1.88-3.07-4.77-3.07-8.69V0h-6.72v25.97c0,5.68,1.54,9.95,4.64,12.79,3.09,2.84,7.73,4.26,13.91,4.26,6.63,0,11.66-1.44,15.07-4.32,3.42-2.88,5.12-7.12,5.12-12.73V.7c-5.4,2.11-6.53,5.53-6.75,7.15Z"/>
    <g class="cls-7">
      <path class="cls-2" d="M109.89,41.85L91.68,0h6.96l14.67,35.03L128.42,0h7.03l-18.53,41.85h-7.02Z"/>
      <path class="cls-2" d="M141.17,41.85V0h6.72v41.85h-6.72Z"/>
      <path class="cls-2" d="M155.06,25.97V0h6.72v26.03c0,3.92,1.02,6.82,3.07,8.69,2.05,1.88,5.22,2.81,9.53,2.81s7.43-.95,9.53-2.86c2.09-1.9,3.14-4.79,3.14-8.65V0h6.75v25.97c0,5.61-1.71,9.85-5.12,12.73-3.42,2.88-8.44,4.32-15.07,4.32-6.19,0-10.82-1.42-13.91-4.26-3.09-2.84-4.64-7.1-4.64-12.79Z"/>
    </g>
    <text class="cls-3" transform="translate(.12 56.12)"><tspan class="cls-1" x="0" y="0">EMP</tspan><tspan class="cls-5" x="29.35" y="0">O</tspan><tspan class="cls-1" x="41.36" y="0">WERING BUSINESSES</tspan></text>
  </g>
</svg>