<?xml version="1.0" encoding="UTF-8"?>
<svg id="Layer_2" data-name="Layer 2" xmlns="http://www.w3.org/2000/svg" viewBox="0 0 21.81 21.48">
  <defs>
    <style>
      .cls-1 {
        fill: #e3ba23;
        stroke: #fff;
        stroke-miterlimit: 10;
        stroke-width: .15px;
      }
    </style>
  </defs>
  <g id="_Layer_" data-name="&amp;lt;Layer&amp;gt;">
    <g>
      <path class="cls-1" d="M15.77,3.09c0-1.65,1.33-2.98,2.98-2.98s2.98,1.33,2.98,2.98-1.33,2.98-2.98,2.98-2.98-1.33-2.98-2.98Z"/>
      <path class="cls-1" d="M15.77,18.42c0-1.65,1.33-2.98,2.98-2.98s2.98,1.33,2.98,2.98-1.33,2.98-2.98,2.98-2.98-1.33-2.98-2.98Z"/>
      <path class="cls-1" d="M13.89,3.09s0-.02,0-.03c0-.03,0-.05,0-.07,0-.08,0-.16-.02-.23,0-.08-.02-.15-.03-.22,0,0,0-.02,0-.03-.02-.1-.04-.19-.06-.28-.13-.44-.36-.83-.66-1.16,0,0-.01-.02-.02-.03,0,0,0,0-.02-.02-.03-.03-.06-.07-.1-.1-.52-.51-1.23-.82-1.98-.84h-.04c-.11,0-.27,0-.46.04-.26.03-.6.12-.96.31-.25.12-.5.28-.73.5-.14.13-.25.28-.34.43-.23.32-.41.71-.49,1.16-.12.75-.05,1.6-.2,2.29-.01.05-.03.11-.06.16-.01.03-.02.05-.04.08-.11.23-.3.52-.53.83-.02.02-.05.04-.07.06-.77.71-1.94,1.52-2.38,1.61-.15.03-.31.05-.46.07-.38,0-.82.03-1.26.11-.19.02-.37.04-.55.08-.52.11-1.03.37-1.4.75-.02.02-.03.03-.05.05h0s0,0,0,0c-.17.17-.39.39-.48.56-.29.52-.42,1.04-.42,1.5,0,.01,0,.02,0,.04,0,.02,0,.04,0,.05,0,.04,0,.07,0,.11,0,.06,0,.12.01.19.02.19.05.37.1.54.13.44.36.83.66,1.16,0,0,.01.02.02.02,0,0,.01,0,.02.02.03.03.06.06.1.1.52.51,1.23.82,1.97.85,0,0,.02,0,.03,0h.02c.11,0,.28,0,.49-.04.2-.03.45-.09.72-.2,0,0,.02,0,.03-.01.05-.02.1-.05.16-.07.26-.12.52-.29.76-.52.16-.15.28-.31.38-.49.21-.31.37-.68.45-1.1.13-.75.06-1.6.2-2.29,0-.04.03-.1.05-.15.01-.03.02-.06.04-.1.03-.07.07-.14.12-.22h0c.11-.18.25-.39.41-.6.07-.06.14-.13.22-.2.25-.22.54-.46.84-.68.57-.42,1.13-.76,1.41-.82.77-.16,1.57-.11,2.27-.27.42-.09.83-.28,1.16-.55,0,0,.02-.01.03-.02.07-.03.13-.07.19-.14.18-.18.43-.43.53-.61.29-.52.42-1.04.43-1.5,0-.02,0-.04,0-.05Z"/>
      <path class="cls-1" d="M13.89,10.75s0-.03,0-.03c0-.02,0-.05,0-.07,0-.08,0-.16-.02-.24,0-.07-.02-.15-.03-.22,0,0,0-.02,0-.03-.02-.09-.04-.19-.06-.28-.13-.44-.36-.83-.66-1.16,0,0-.01-.02-.02-.02,0,0,0-.01-.02-.02-.03-.03-.06-.06-.1-.1-.52-.51-1.23-.82-1.98-.84h-.04c-.11,0-.27,0-.46.04-.26.03-.6.11-.96.31-.25.12-.5.28-.73.5-.14.13-.25.28-.34.43-.23.32-.41.71-.49,1.16-.12.75-.05,1.59-.2,2.3-.01.05-.03.11-.06.16-.01.03-.02.05-.04.08-.11.23-.3.52-.53.83-.02.02-.05.04-.07.06-.77.71-1.94,1.52-2.38,1.61-.15.03-.31.05-.46.07-.38,0-.82.03-1.26.11-.19.02-.37.04-.55.08-.52.11-1.03.37-1.4.74-.02.02-.03.03-.05.05h0s0,0,0,0c-.17.18-.39.39-.48.56-.29.52-.42,1.04-.42,1.5,0,.01,0,.03,0,.04,0,.02,0,.03,0,.05,0,.04,0,.07,0,.11,0,.06,0,.12.01.19.02.19.05.37.1.54.13.44.36.83.66,1.16,0,0,.01.02.02.02,0,0,.01,0,.02.02.03.04.06.07.1.1.52.51,1.23.82,1.97.84,0,0,.02,0,.03,0,0,0,.01,0,.02,0,.11,0,.28,0,.49-.04.2-.03.45-.09.72-.2,0,0,.02,0,.03-.01.05-.02.1-.05.16-.07.26-.12.52-.29.76-.52.16-.15.28-.31.38-.49.21-.31.37-.68.45-1.1.13-.75.06-1.6.2-2.3,0-.04.03-.1.05-.15.01-.03.02-.06.04-.1.03-.07.07-.14.12-.22h0c.11-.18.25-.39.41-.6.07-.06.14-.13.22-.2.25-.22.54-.46.84-.68.57-.42,1.13-.76,1.41-.82.77-.16,1.57-.11,2.27-.27.42-.09.83-.28,1.16-.55,0,0,.02-.01.03-.02.07-.03.13-.08.19-.14.18-.18.43-.43.53-.61.29-.52.42-1.04.43-1.5,0-.02,0-.04,0-.05Z"/>
      <path class="cls-1" d="M21.73,10.75s0-.03,0-.03c0-.02,0-.05,0-.07,0-.08,0-.16-.02-.24,0-.07-.02-.15-.03-.22,0,0,0-.02,0-.03-.02-.09-.04-.19-.06-.28-.13-.44-.36-.83-.66-1.16,0,0-.01-.02-.02-.02,0,0-.01-.01-.02-.02-.03-.03-.07-.06-.1-.1-.52-.51-1.23-.82-1.97-.84h-.04c-.11,0-.27,0-.46.04-.26.03-.6.11-.96.31-.25.12-.5.28-.73.5-.14.13-.25.28-.34.43-.23.32-.41.71-.49,1.16-.13.75-.05,1.59-.2,2.3,0,.05-.03.11-.06.16-.01.03-.02.05-.03.08-.11.23-.3.52-.53.83-.02.02-.05.04-.07.06-.77.71-1.94,1.52-2.38,1.61-.15.03-.31.05-.46.07-.38,0-.82.03-1.26.11-.19.02-.37.04-.55.08-.52.11-1.04.37-1.4.74l-.05.05s0,0,0,0h0c-.17.18-.39.39-.48.56-.29.52-.42,1.04-.43,1.5,0,.01,0,.03,0,.04,0,.02,0,.03,0,.05,0,.04,0,.07,0,.11,0,.06,0,.12.01.19.02.19.05.37.1.54.13.44.36.83.66,1.16,0,0,.01.02.02.02,0,0,.01,0,.02.02.03.04.07.07.1.1.52.51,1.23.82,1.97.84,0,0,.02,0,.03,0,0,0,.01,0,.02,0,.11,0,.29,0,.49-.04.2-.03.45-.09.72-.2,0,0,.02,0,.03-.01.05-.02.1-.05.16-.07.26-.12.52-.29.76-.52.16-.15.28-.31.38-.49.21-.31.37-.68.45-1.1.13-.75.06-1.6.2-2.3,0-.04.03-.1.05-.15.01-.03.03-.06.04-.1.03-.07.07-.14.12-.22h0c.11-.18.25-.39.41-.6.07-.06.14-.13.21-.2.25-.22.54-.46.84-.68.57-.42,1.13-.76,1.41-.82.77-.16,1.57-.11,2.27-.27.42-.09.83-.28,1.16-.55,0,0,.02-.01.03-.02.07-.03.13-.08.19-.14.18-.18.43-.43.53-.61.29-.52.42-1.04.43-1.5,0-.02,0-.04,0-.05Z"/>
      <path class="cls-1" d="M.07,3.09C.07,1.44,1.41.11,3.06.11s2.98,1.33,2.98,2.98-1.33,2.98-2.98,2.98S.07,4.74.07,3.09Z"/>
    </g>
  </g>
</svg>